<?xml version="1.0" standalone="no"?><!DOCTYPE svg PUBLIC "-//W3C//DTD SVG 1.1//EN" "http://www.w3.org/Graphics/SVG/1.1/DTD/svg11.dtd"><svg t="1569416432408" class="icon" viewBox="0 0 1024 1024" version="1.1" xmlns="http://www.w3.org/2000/svg" p-id="4004" xmlns:xlink="http://www.w3.org/1999/xlink" width="200" height="200"><defs><style type="text/css"></style></defs><path d="M512 2.56C231.424 2.56 3.584 229.888 3.584 510.976S231.424 1018.88 512 1018.88s508.416-227.328 508.416-508.416S793.088 2.56 512 2.56z m0 941.568c-239.616 0-433.664-194.048-433.664-433.664C78.336 270.848 272.384 76.8 512 76.8s433.664 194.048 433.664 433.664-194.048 433.664-433.664 433.664z" fill="#F4DCCB" p-id="4005"></path><path d="M699.904 252.416c-61.952-34.816-140.8-13.824-176.128 47.616l-9.728 16.384c-1.024 1.024-1.536 2.048-2.048 3.072l-126.976 220.16c-10.752 18.944-13.824 41.472-8.192 61.952 5.12 19.456 17.408 35.84 34.816 45.568 11.264 6.656 24.064 10.24 37.376 10.24 6.656 0 13.312-1.024 19.968-2.56 20.48-5.632 38.4-18.944 49.152-37.888L629.76 429.056c4.608-7.68 2.048-17.92-5.632-23.04-7.68-4.608-17.92-2.048-23.04 5.632l-111.616 187.904c-6.656 11.264-16.896 19.456-28.672 22.528-10.752 3.072-22.528 1.536-32.256-4.096-9.216-5.12-16.384-14.336-18.944-25.088-3.584-11.776-1.536-25.6 5.12-36.352l46.08-80.896 0.512 0.512L552.96 316.928c26.112-45.056 84.992-60.928 130.56-35.328 45.056 26.112 60.928 84.992 35.328 130.56l-19.968 34.304c-1.024 1.024-2.048 2.048-2.56 3.584l-131.584 227.328c-19.968 34.816-52.224 59.392-90.624 69.632-37.376 10.24-75.776 5.12-109.056-13.824-32.768-18.944-56.832-49.664-66.56-87.04-10.24-38.4-4.608-78.848 15.36-113.664l128.512-222.72c4.608-8.192 2.048-17.92-6.144-23.04s-17.92-2.048-23.04 6.144l-128.512 222.72c-25.088 43.008-31.232 92.16-18.944 139.264 12.288 46.08 41.472 83.968 82.432 107.52 26.624 15.872 56.832 23.552 87.552 23.552 15.872 0 31.232-2.048 47.104-6.144 42.496-11.264 78.336-37.376 102.912-73.728l1.024 0.512L747.52 428.544c34.816-61.44 13.824-140.8-47.616-176.128z" fill="#FF9D4D" p-id="4006"></path></svg>