<?xml version="1.0" standalone="no"?><!DOCTYPE svg PUBLIC "-//W3C//DTD SVG 1.1//EN" "http://www.w3.org/Graphics/SVG/1.1/DTD/svg11.dtd"><svg t="1569414895661" class="icon" viewBox="0 0 1024 1024" version="1.1" xmlns="http://www.w3.org/2000/svg" p-id="9272" xmlns:xlink="http://www.w3.org/1999/xlink" width="200" height="200"><defs><style type="text/css"></style></defs><path d="M192 384h640a42.666667 42.666667 0 0 1 42.666667 42.666667v362.666666a42.666667 42.666667 0 0 1-42.666667 42.666667H192v106.666667a21.333333 21.333333 0 0 0 21.333333 21.333333h725.333334a21.333333 21.333333 0 0 0 21.333333-21.333333V308.821333L949.909333 298.666667h-126.528A98.048 98.048 0 0 1 725.333333 200.618667V72.661333L716.714667 64H213.333333a21.333333 21.333333 0 0 0-21.333333 21.333333v298.666667zM128 832H42.666667a42.666667 42.666667 0 0 1-42.666667-42.666667V426.666667a42.666667 42.666667 0 0 1 42.666667-42.666667h85.333333V85.333333a85.333333 85.333333 0 0 1 85.333333-85.333333h530.026667L1024 282.453333V938.666667a85.333333 85.333333 0 0 1-85.333333 85.333333H213.333333a85.333333 85.333333 0 0 1-85.333333-85.333333v-106.666667z m107.925333-359.509333L131.093333 746.666667h48l24.96-68.736h114.816L343.829333 746.666667h48l-104.832-274.176h-51.072z m-18.432 168.576l43.392-120.192h1.536l43.008 120.192h-87.936z m176.256-168.576L491.285333 746.666667h54.144l97.536-274.176h-48.768l-75.264 223.488h-1.152l-75.264-223.488h-48.768z m278.016 0V746.666667h44.928V472.490667h-44.928z" fill="#EF3450" p-id="9273"></path></svg>