<?xml version="1.0" standalone="no"?><!DOCTYPE svg PUBLIC "-//W3C//DTD SVG 1.1//EN" "http://www.w3.org/Graphics/SVG/1.1/DTD/svg11.dtd"><svg t="1568883771416" class="icon" viewBox="0 0 1024 1024" version="1.1" xmlns="http://www.w3.org/2000/svg" p-id="909" xmlns:xlink="http://www.w3.org/1999/xlink" width="200" height="200"><defs><style type="text/css"></style></defs><path d="M264.490667 85.333333h25.621333A179.136 179.136 0 0 1 469.333333 264.533333V469.333333h-204.8A179.136 179.136 0 0 1 85.333333 290.133333v-25.6C85.333333 165.546667 165.546667 85.333333 264.490667 85.333333z m0 853.333334A179.157333 179.157333 0 0 1 85.333333 759.466667v-25.6a179.2 179.2 0 0 1 179.2-179.2H469.333333v204.8a179.2 179.2 0 0 1-179.2 179.2h-25.642666z m495.018666 0h-25.621333A179.136 179.136 0 0 1 554.666667 759.466667V554.666667h204.8a179.136 179.136 0 0 1 179.2 179.2v25.6c0 98.986667-80.213333 179.2-179.157334 179.2z m0-853.333334A179.157333 179.157333 0 0 1 938.666667 264.533333v25.6a179.2 179.2 0 0 1-179.2 179.2H554.666667v-204.8A179.2 179.2 0 0 1 733.866667 85.333333h25.642666z" fill="#3ABCFB" p-id="910"></path></svg>