<?xml version="1.0" standalone="no"?><!DOCTYPE svg PUBLIC "-//W3C//DTD SVG 1.1//EN" "http://www.w3.org/Graphics/SVG/1.1/DTD/svg11.dtd"><svg class="icon" width="200px" height="200.00px" viewBox="0 0 1024 1024" version="1.1" xmlns="http://www.w3.org/2000/svg"><path d="M535.24889 0h69.921475v238.199158h361.260954c23.307158-1.281894 56.170252 5.82679 55.704108 36.359167 4.42836 150.680778 0 301.594628 2.097645 452.391942 0 26.686696 0 68.756117-35.893024 69.105725-128.189371 4.544896-255.562991 0-383.286218 1.748037v226.195971h-72.368727C355.434164 990.554228 177.600546 960.721065 0 928.790258V95.442813C178.416297 63.512006 356.949129 32.513486 535.24889 0z" fill="#0071C5" /><path d="M604.937294 273.85911h387.248435a58.850575 58.850575 0 0 1-19.694549 40.787527q-115.720041 110.126323-230.740867 221.418004c-46.614317-42.768635-91.247525-86.9357-136.813019-130.403551z" fill="#FFFFFF" /><path d="M778.342551 546.436326c69.921475-67.940366 140.6587-135.531126 211.046319-203.121884v418.713099h-384.568112V450.643906C648.52168 490.033003 687.56117 534.782747 734.175487 571.025378c18.412655 3.146466 31.231592-13.634688 44.167064-24.589052zM341.566405 549.699329c-20.859907 18.179583-33.911915 27.152839-46.614317 27.152839s-25.171731-8.390577-44.749744-24.938659l-116.535791 110.942073h327.58211l-118.283829-114.205076zM203.588028 512.757483c-27.618983-23.307158-59.433254-49.760783-90.082167-75.981336v211.628997L231.20701 536.064641zM483.973142 651.202003a16.548082 16.548082 0 0 0 0.932286-4.894503V428.269034c-36.82531 30.998521-89.965631 75.748264-123.527939 104.882212z" fill="#FFFFFF" /><path d="M461.59827 361.260954H136.696483a33.79538 33.79538 0 0 0-23.307158 25.171731v19.811084c34.261523 29.483555 71.43644 60.598612 102.901104 86.935701 17.363833 14.450438 32.979629 27.502447 45.215887 37.990668 33.096165 28.085126 33.096165 28.085126 66.891544-1.165358 30.648913-26.453625 112.806646-95.792421 156.391033-132.501195v-11.653579A33.678844 33.678844 0 0 0 461.59827 361.260954z" fill="#FFFFFF" /></svg>