<?xml version="1.0" standalone="no"?><!DOCTYPE svg PUBLIC "-//W3C//DTD SVG 1.1//EN" "http://www.w3.org/Graphics/SVG/1.1/DTD/svg11.dtd"><svg class="icon" width="200px" height="200.00px" viewBox="0 0 1024 1024" version="1.1" xmlns="http://www.w3.org/2000/svg"><path d="M535.24889 0h69.921475v238.199158h361.260954c23.307158-1.281894 56.170252 5.82679 55.704108 36.359167 4.42836 150.680778 0 301.594628 2.097645 452.391942 0 26.686696 0 68.756117-35.893024 69.105725-128.189371 4.544896-255.562991 0-383.286218 1.748037v226.195971h-72.368727C355.434164 990.554228 177.600546 960.721065 0 928.790258V95.442813C178.416297 63.512006 356.949129 32.513486 535.24889 0z" fill="#0071C5" /><path d="M604.937294 273.85911h387.248435a58.850575 58.850575 0 0 1-19.694549 40.787527q-115.720041 110.126323-230.740867 221.418004c-46.614317-42.768635-91.247525-86.9357-136.813019-130.403551z" fill="#FFFFFF" /><path d="M778.342551 546.436326c69.921475-67.940366 140.6587-135.531126 211.046319-203.121884v418.713099h-384.568112V450.643906C648.52168 490.033003 687.56117 534.782747 734.175487 571.025378c18.412655 3.146466 31.231592-13.634688 44.167064-24.589052zM447.497439 304.857631v69.921474h-209.764424v82.507341h192.633663v69.921475H237.84955V629.293274H456.820303v69.921475H156.973711V304.857631z" fill="#FFFFFF" /></svg>