<?xml version="1.0" standalone="no"?><!DOCTYPE svg PUBLIC "-//W3C//DTD SVG 1.1//EN" "http://www.w3.org/Graphics/SVG/1.1/DTD/svg11.dtd"><svg t="1572000723149" class="icon" viewBox="0 0 1024 1024" version="1.1" xmlns="http://www.w3.org/2000/svg" p-id="1508" xmlns:xlink="http://www.w3.org/1999/xlink" width="200" height="200"><defs><style type="text/css"></style></defs><path d="M1014.272 251.392L762.88 10.752C756.736 5.12 749.568 2.048 741.376 2.048h-465.92C227.84 2.048 189.44 40.448 189.44 88.064V296.96H89.6C42.496 296.96 4.608 334.848 4.608 381.952v439.296c0 47.104 37.888 84.992 84.992 84.992H189.44v26.624c0 47.616 38.4 86.016 86.016 86.016h662.016c47.616 0 86.016-38.4 86.016-86.016V273.408c0-8.192-3.072-16.384-9.216-22.016zM757.76 91.136L925.184 250.88l-167.424-4.608V91.136zM89.6 844.8c-12.8 0-23.552-10.752-23.552-23.552V381.952c0-12.8 10.752-23.552 23.552-23.552h439.296c12.8 0 23.552 10.752 23.552 23.552v439.296c0 12.8-10.752 23.552-23.552 23.552H89.6z m872.448 88.064c0 13.312-11.264 24.576-24.576 24.576H275.456c-13.312 0-24.576-11.264-24.576-24.576V906.24h278.016c47.104 0 84.992-37.888 84.992-84.992V381.952c0-47.104-37.888-84.992-84.992-84.992H250.88V88.064c0-13.312 11.264-24.576 24.576-24.576H696.32V276.48c0 16.896 12.8 30.208 29.696 30.72l236.032 6.144v619.52zM262.656 707.584h-0.512z" fill="#646464" p-id="1509"></path><path d="M115.712 636.928l146.432 70.656v-53.248L173.056 614.4l89.6-39.936v-53.248l-146.944 71.168zM271.36 728.064h26.624l47.616-227.84h-26.624zM353.792 574.464l89.088 39.936-89.088 39.936v53.248l146.944-70.656v-44.544l-146.944-71.168z" fill="#646464" p-id="1510"></path></svg>